# xmcd CD database file
#
# Track frame offsets:
#	150
#	25144
#	47456
#	75078
#	95834
#	120874
#	145739
#	177598
#	190148
#	206857
#	230641
#	254624
#	276978
#	308789
#	330493
#
# Disc length: 4692 seconds
#
# Revision: 2
# Processed by: cddbd v1.5.2PL0 Copyright (c) Steve Scherf et al.
# Submitted via: CDex 1.51
#
DISCID=ce12520f
DTITLE=Rozni wykonawcy - Antologia Polskiego Bluesa 3 - CD2 Pogromcy gitary 2
DYEAR=2011
DGENRE=Blues
TTITLE0=Jacek Jagus (J.J. Band) - Rzeka dziecinstwa
TTITLE1=Leszek Cichonski - Thanks Jimi
TTITLE2=Kajetan Drozd (Siodma w Nocy) - Juz mnie wiecej nie oszukasz
TTITLE3=Maciej Lipina (Scigani) - Nie wroce
TTITLE4=Marcin Szulkowski (Szulerzy) - Ktos za mna ciagle goni
TTITLE5=Aleksander Gorny (Los Agentos) - No More Doggin' (live)
TTITLE6=Oskar Kunicki (Blues Doctors) - Blues w C
TTITLE7=Waldemar Zielinski (Jerry's Hole Band) - Wielki szef
TTITLE8=Lester Kidson - Skorzane spodnie
TTITLE9=Wojtek Klich - Nie ma jak komputer
TTITLE10=Maciej Sobczak/Janusz Siemienas (Boogie Chilli) - Walking Blues
TTITLE11=Sebastian Kozlowski (Devil Blues) - Tell Me
TTITLE12=Bartek Miarka (HooDoo Band) - She's 19 Years Old
TTITLE13=Grzegorz Kluczynski (Kasa Chorych) - Dokad mnie prowadzisz
TTITLE14=Andrzej Malcherek (Favour) - Morpheus
EXTD=YEAR: 2011
EXTT0=
EXTT1=
EXTT2=
EXTT3=
EXTT4=
EXTT5=
EXTT6=
EXTT7=
EXTT8=
EXTT9=
EXTT10=
EXTT11=
EXTT12=
EXTT13=
EXTT14=
PLAYORDER=
